<?xml version="1.0" encoding="UTF-8"?>
<svg id="Layer_2" data-name="Layer 2" xmlns="http://www.w3.org/2000/svg" xmlns:xlink="http://www.w3.org/1999/xlink" viewBox="0 0 210 54">
  <defs>
    <style>
      .cls-1 {
        clip-path: url(#clippath-1);
      }

      .cls-2 {
        clip-rule: evenodd;
      }

      .cls-2, .cls-3, .cls-4 {
        fill: #d1b180;
      }

      .cls-4 {
        fill-rule: evenodd;
      }

      .cls-5 {
        clip-path: url(#clippath);
      }

      .cls-6 {
        fill: none;
      }
    </style>
    <clipPath id="clippath">
      <path class="cls-2" d="m17.22,39.17c4.28,0,8.38-1.53,11.58-4.37,3.16-2.79,5.18-6.58,5.72-10.73.09-.68-1.4-1.17-2.61-1.17-.77,0-1.4.18-1.44.63-.86,6.4-6.27,11.27-12.67,11.54l-2.97,3.92c.77.09,1.58.18,2.39.18Z"/>
    </clipPath>
    <clipPath id="clippath-1">
      <path class="cls-2" d="m22.14,39.26c-1.58.45-3.2.63-4.82.63-.99,0-2.03-.09-2.97-.23l-2.75,3.61c1.85.5,3.79.72,5.72.72s4.01-.27,5.9-.81c1.08-.32,1.71-1.44,1.44-2.52-.27-.9-1.08-1.49-1.98-1.49-.18.05-.36.05-.54.09Z"/>
    </clipPath>
  </defs>
  <g id="Layer_1-2" data-name="Layer 1">
    <g>
      <rect class="cls-6" x="0" width="210" height="54"/>
      <g>
        <path class="cls-4" d="m50.62,37.82h-1.49l-2.97,6.67h1.35l.59-1.35h3.56l.59,1.35h1.35l-2.97-6.67Zm-.77,1.35l1.31,2.88h-2.61l1.31-2.88Z"/>
        <path class="cls-4" d="m58.1,45.62h1.13v-1.13h1.94c.77-.14,1.17-.9,1.22-2.21h-1.13c-.05.77-.23,1.13-.54,1.13h-4.01c-.36,0-.54-.41-.54-1.26v-2.03c0-.86.18-1.26.54-1.26h4.01c.36,0,.54.36.54,1.13h1.13c-.05-1.31-.45-2.03-1.22-2.21h-4.96c-.81.18-1.22.95-1.22,2.34v2.03c0,1.4.41,2.16,1.22,2.34h1.94l-.05,1.13Z"/>
        <rect class="cls-3" x="63.74" y="37.82" width="1.13" height="6.67"/>
        <path class="cls-4" d="m69.42,45.62h1.13v-1.13h1.94c.81-.18,1.22-.95,1.22-2.34v-2.03c0-1.4-.41-2.16-1.22-2.34h-4.96c-.81.18-1.22.95-1.22,2.34v2.03c0,1.4.41,2.16,1.22,2.34h1.94l-.04,1.13Zm-2.03-3.43v-2.03c0-.86.18-1.26.54-1.26h4.01c.36,0,.54.41.54,1.26v2.03c0,.86-.18,1.26-.54,1.26h-4.01c-.36-.04-.54-.45-.54-1.26Z"/>
        <path class="cls-4" d="m85.55,37.82h-4.96c-.72.18-1.13.77-1.22,1.8v.18c.09,1.08.5,1.71,1.22,1.85h4.51c.32,0,.5.27.54.81-.05.63-.23.9-.54.9h-4.01c-.32,0-.54-.36-.54-1.13h-1.13c.04,1.31.45,2.03,1.22,2.21h4.96c.72-.18,1.13-.77,1.22-1.89v-.23c-.09-.99-.5-1.62-1.22-1.76h-4.51c-.32,0-.5-.27-.54-.81.05-.63.23-.9.54-.9h4.01c.36,0,.54.36.54,1.13h1.13c-.04-1.26-.45-1.98-1.22-2.16Z"/>
        <path class="cls-4" d="m94.34,37.82h-4.96c-.77.14-1.17.9-1.22,2.21h1.13c.04-.72.23-1.13.54-1.13h4.01c.36,0,.54.41.54,1.26v.45h-6.27v1.8c.05,1.22.45,1.94,1.22,2.07h4.96c.81-.18,1.22-.95,1.22-2.34v-2.03c.04-1.35-.36-2.12-1.17-2.3Zm-5.05,4.51v-.59h5.14v.45c0,.86-.18,1.26-.54,1.26h-4.01c-.36-.05-.54-.41-.59-1.13Z"/>
        <path class="cls-4" d="m159.75,37.82h-4.96c-.77.14-1.17.9-1.22,2.21h1.13c.04-.72.23-1.13.54-1.13h4.01c.36,0,.54.41.54,1.26v.45h-6.27v1.8c.04,1.22.45,1.94,1.22,2.07h4.96c.81-.18,1.22-.95,1.22-2.34v-2.03c.04-1.35-.36-2.12-1.17-2.3Zm-5.05,4.51v-.59h5.14v.45c0,.86-.18,1.26-.54,1.26h-4.01c-.36-.05-.54-.41-.59-1.13Z"/>
        <path class="cls-4" d="m199.59,42.19v-2.03c0-1.4-.41-2.16-1.22-2.34h-4.96c-.77.14-1.17.9-1.22,2.21h1.13c.04-.72.23-1.13.54-1.13h4.01c.36,0,.54.41.54,1.26v.45h-6.26v1.8c.04,1.22.45,1.94,1.22,2.07h4.96c.86-.14,1.26-.95,1.26-2.3Zm-6.31.14v-.59h5.14v.45c0,.86-.18,1.26-.54,1.26h-4.01c-.36-.05-.54-.41-.59-1.13Z"/>
        <polygon class="cls-4" points="104.35 37.82 103.22 37.82 103.22 40.61 98.08 40.61 98.08 37.82 96.96 37.82 96.96 44.49 98.08 44.49 98.08 41.69 103.22 41.69 103.22 44.49 104.35 44.49 104.35 37.82"/>
        <polygon class="cls-4" points="114.04 37.82 112.28 37.82 109.89 43.14 107.51 37.82 105.75 37.82 105.75 44.49 106.87 44.49 106.87 39.44 109.13 44.49 110.66 44.49 112.91 39.44 112.91 44.49 114.04 44.49 114.04 37.82"/>
        <path class="cls-4" d="m122.38,42.19v-2.03c0-1.4-.41-2.16-1.22-2.34h-5.72v6.67h5.72c.81-.14,1.22-.95,1.22-2.3Zm-5.82-3.29h4.15c.36,0,.54.41.54,1.26v2.03c0,.86-.18,1.26-.54,1.26h-4.15v-4.55Z"/>
        <path class="cls-4" d="m128.24,37.82h-1.49l-2.97,6.67h1.35l.59-1.35h3.56l.59,1.35h1.35l-2.97-6.67Zm-.77,1.35l1.31,2.88h-2.61l1.31-2.88Z"/>
        <path class="cls-4" d="m139.06,42.6c0-.68-.09-1.13-.31-1.4.18-.27.31-.72.31-1.35v-.05c0-1.22-.4-1.85-1.22-1.94h-5.27v6.67h1.13v-2.79h3.92c.32,0,.45.27.45.86v1.94h.99v-1.94Zm-5.36-3.7h3.92c.32,0,.45.27.45.86s-.13.86-.45.86h-3.92v-1.71Z"/>
        <path class="cls-4" d="m150.96,37.82h-4.96c-.81.18-1.22.95-1.22,2.34v2.03c0,1.4.4,2.16,1.22,2.34h4.96c.77-.14,1.17-.9,1.22-2.21h-1.13c-.04.77-.23,1.13-.54,1.13h-4.01c-.36,0-.54-.41-.54-1.26v-2.03c0-.86.18-1.26.54-1.26h4.01c.36,0,.54.36.54,1.13h1.13c-.04-1.31-.45-2.03-1.22-2.21Z"/>
        <polygon class="cls-4" points="170.65 44.49 170.65 37.82 168.9 37.82 166.51 43.14 164.16 37.82 162.36 37.82 162.36 44.49 163.49 44.49 163.49 39.44 165.79 44.49 167.27 44.49 169.53 39.44 169.53 44.49 170.65 44.49"/>
        <polygon class="cls-4" points="182.1 37.82 180.71 37.82 178.27 40.43 175.88 37.82 174.48 37.82 177.64 41.2 177.73 41.29 177.73 44.49 178.86 44.49 178.86 41.29 178.95 41.2 182.1 37.82"/>
        <polygon class="cls-4" points="190.89 37.82 189.49 37.82 187.06 40.43 184.67 37.82 183.27 37.82 186.43 41.2 186.52 41.29 186.52 44.49 187.65 44.49 187.65 41.29 187.74 41.2 190.89 37.82"/>
        <polygon class="cls-4" points="207.48 38.9 207.48 37.82 200.99 37.82 200.99 38.9 203.65 38.9 203.65 44.49 204.77 44.49 204.77 38.9 207.48 38.9"/>
        <rect class="cls-3" x="208.88" y="37.82" width="1.13" height="1.08"/>
        <rect class="cls-3" x="208.88" y="40.03" width="1.13" height="4.46"/>
        <rect class="cls-3" x="172.05" y="37.82" width="1.13" height="1.08"/>
        <rect class="cls-3" x="172.05" y="40.03" width="1.13" height="4.46"/>
        <path class="cls-4" d="m49.09,12.12h20.01v17.31c0,1.08-.9,1.98-1.98,1.98h-1.67c-.54,0-.99-.45-.99-.99v-13.61h-13.16c-.27,0-.5.23-.5.5v8.97c0,.27.23.5.5.5h9.78c.54,0,.99.45.99.99v2.66c0,.54-.45.99-.99.99h-11.94c-1.67,0-2.97-1.35-2.97-2.97v-13.34c-.05-1.62,1.31-2.97,2.93-2.97Z"/>
        <path class="cls-4" d="m71.94,31.42h21.5c.54,0,.99-.45.99-.99v-2.66c0-.54-.45-.99-.99-.99h-11.85l12.71-13.79c.14-.14.18-.36.09-.54-.09-.18-.27-.32-.45-.32h-21.5c-.54,0-.99.45-.99.99v2.66c0,.54.45.99.99.99h11.85l-12.71,13.79c-.14.14-.18.36-.09.54.09.23.27.32.45.32Z"/>
        <path class="cls-4" d="m99.8,31.42h16.99c1.67,0,2.97-1.35,2.97-2.97v-13.34c0-1.67-1.35-2.97-2.97-2.97h-16.99c-1.67,0-2.97,1.35-2.97,2.97v.68c0,.54.45.99.99.99h16.81c.27,0,.5.23.5.5v2.16h-17.31c-.54,0-.99.45-.99.99v7.98c0,1.71,1.35,3.02,2.97,3.02Zm1.71-5.14v-1.85c0-.18.13-.32.31-.32h13.34v2.16c0,.27-.22.5-.5.5h-12.67c-.27,0-.5-.23-.5-.5Z"/>
        <path class="cls-4" d="m123.19,31.42h2.66c.54,0,.99-.45.99-.99v-13.61h17.31c.54,0,.99-.45.99-.99v-2.66c0-.54-.45-.99-.99-.99h-21.01c-.54,0-.99.45-.99.99v17.31c.04.54.5.95,1.04.95Z"/>
        <path class="cls-3" d="m180.98,12.17h2.66c.55,0,.99.44.99.99v17.31c0,.55-.44.99-.99.99h-2.66c-.55,0-.99-.44-.99-.99V13.16c0-.55.44-.99.99-.99Z"/>
        <path class="cls-3" d="m148.57,19.47h2.66c.55,0,.99.44.99.99v9.96c0,.55-.44.99-.99.99h-2.66c-.55,0-.99-.44-.99-.99v-9.96c0-.55.44-.99.99-.99Z"/>
        <path class="cls-4" d="m148.57,16.81h2.66c.54,0,.99-.45.99-.99v-2.66c0-.54-.45-.99-.99-.99h-2.66c-.54,0-.99.45-.99.99v2.66c0,.54.4.99.99.99Z"/>
        <path class="cls-4" d="m165.19,35.89h2.66c.54,0,.99-.45.99-.99v-3.65h6.18c1.67,0,2.98-1.35,2.98-2.97v-5.99c0-1.67-1.35-2.97-2.98-2.97h-14.83c-.27,0-.5-.23-.5-.5v-1.67c0-.27.22-.5.5-.5h16.81c.54,0,.99-.45.99-.99v-2.66c0-.54-.45-.99-.99-.99h-19.02c-1.67,0-2.98,1.35-2.98,2.97v6.04c0,1.67,1.35,2.97,2.98,2.97h14.83c.27,0,.5.23.5.5v1.67c0,.27-.23.5-.5.5h-16.81c-.54,0-.99.45-.99.99v2.66c0,.54.45.99.99.99h8.16v3.65c.05.54.5.95,1.04.95Z"/>
        <path class="cls-4" d="m206.31,36.06h2.66c.54,0,.99-.45.99-.99V13.12c0-.54-.45-.99-.99-.99h-19.02c-1.67,0-2.98,1.35-2.98,2.97v13.34c0,1.67,1.35,2.97,2.98,2.97h15.32v3.65c.04.59.5.99,1.04.99Zm-14.6-10.28v-7.98c0-.54.45-.99.99-.99h12.17c.27,0,.5.23.5.5v9.47h-12.67c-.59,0-.99-.45-.99-.99Z"/>
        <path class="cls-4" d="m22.23,44.26c-1.62.36-3.29.54-4.96.54s-3.34-.18-4.96-.54c-1.13-.23-2.21.45-2.43,1.58-.23,1.13.45,2.21,1.58,2.43,1.89.41,3.88.63,5.81.63s3.92-.23,5.81-.63c1.13-.23,1.8-1.35,1.58-2.43-.23-.95-1.04-1.62-1.98-1.62-.18,0-.32,0-.45.05Z"/>
        <path class="cls-4" d="m5.77,8.65C2.62,11.45.54,15.28,0,19.43c-.14,1.13,3.92,1.58,4.06.54.86-6.4,6.27-11.27,12.67-11.54l2.97-3.92c-.81-.14-1.62-.18-2.43-.18-4.24,0-8.34,1.53-11.49,4.33Z"/>
        <path class="cls-4" d="m22.09,9.33c4.42,1.71,7.71,5.72,8.38,10.64.14,1.04,4.19.59,4.06-.54-.54-4.15-2.61-7.98-5.72-10.73-1.44-1.26-3.11-2.3-4.87-3.02l-1.85,3.65Z"/>
        <path class="cls-4" d="m17.22,53.77h.18c1.53,0,3.07-.14,4.6-.32,1.13-.18,1.89-1.22,1.71-2.34-.14-1.04-1.04-1.76-2.03-1.76h-.32c-1.35.18-2.7.27-4.06.27s-2.7-.09-4.06-.27c-1.13-.18-2.16.63-2.34,1.71-.18,1.13.63,2.16,1.71,2.34,1.49.23,3.06.36,4.6.36Z"/>
        <polygon class="cls-4" points="6.63 24.25 19.16 24.25 9.47 43.5 27.95 19.16 15.42 19.16 25.07 0 6.63 24.25"/>
        <path class="cls-4" d="m0,24.07c.54,4.15,2.61,7.93,5.77,10.73,1.44,1.26,3.11,2.3,4.82,3.02l1.85-3.7c-4.42-1.71-7.71-5.68-8.38-10.59-.05-.45-.68-.63-1.44-.63-1.22,0-2.7.45-2.61,1.17Z"/>
        <g>
          <path class="cls-4" d="m17.22,39.17c4.28,0,8.38-1.53,11.58-4.37,3.16-2.79,5.18-6.58,5.72-10.73.09-.68-1.4-1.17-2.61-1.17-.77,0-1.4.18-1.44.63-.86,6.4-6.27,11.27-12.67,11.54l-2.97,3.92c.77.09,1.58.18,2.39.18Z"/>
          <g class="cls-5">
            <rect class="cls-3" x="14.83" y="22.9" width="19.79" height="16.27"/>
            <polygon class="cls-3" points="13.83 40.17 32.38 40.17 35.62 40.17 35.62 21.9 13.83 21.9 13.83 40.17"/>
            <polygon class="cls-3" points="13.83 40.17 32.28 40.17 35.62 40.17 35.62 21.9 13.83 21.9 13.83 40.17"/>
            <polygon class="cls-3" points="13.83 40.17 32.19 40.17 35.62 40.17 35.62 21.9 13.83 21.9 13.83 40.17"/>
            <path class="cls-3" d="m13.83,40.17h18.27v4.51c3.77-1.15,7.33-3.03,10.44-5.55h-6.92v-17.23H13.83v18.27Z"/>
            <path class="cls-3" d="m13.83,40.17h18.18v4.21c3.73-1.14,7.25-3,10.33-5.5h-6.72v-16.98H13.83v18.27Z"/>
            <path class="cls-3" d="m13.83,40.17h18.09v3.9c3.7-1.13,7.18-2.97,10.23-5.44h-6.52v-16.74H13.83v18.27Z"/>
            <path class="cls-3" d="m13.83,40.17h17.99v3.6c3.66-1.12,7.1-2.93,10.12-5.38h-6.33v-16.49H13.83v18.27Z"/>
            <path class="cls-3" d="m13.83,40.17h17.9v3.3c3.62-1.11,7.03-2.9,10.01-5.33h-6.13v-16.25H13.83v18.27Z"/>
            <path class="cls-3" d="m13.83,40.17h17.81v3c3.58-1.09,6.95-2.87,9.91-5.27h-5.93v-16H13.83v18.27Z"/>
            <path class="cls-3" d="m13.83,40.17h17.72v2.7c3.54-1.08,6.88-2.84,9.8-5.21h-5.73v-15.76H13.83v18.27Z"/>
            <path class="cls-3" d="m13.83,40.17h17.63v2.4c3.5-1.07,6.8-2.81,9.69-5.16h-5.53v-15.52H13.83v18.27Z"/>
            <path class="cls-3" d="m13.83,40.17h17.54v2.1c3.46-1.06,6.73-2.78,9.59-5.1h-5.34v-15.27H13.83v18.27Z"/>
            <path class="cls-3" d="m9.96,39.91c6.82,3.63,14.46,4.15,21.32,2.06,3.43-1.05,6.65-2.75,9.48-5.04h-5.14v-15.03H13.83v18.01h-3.87Z"/>
            <path class="cls-3" d="m10.11,39.63c6.74,3.59,14.3,4.11,21.08,2.04,3.39-1.04,6.58-2.72,9.37-4.99h-4.94v-14.78H13.83v17.73h-3.72Z"/>
            <path class="cls-3" d="m10.26,39.35c6.66,3.55,14.14,4.06,20.84,2.01,3.35-1.02,6.5-2.69,9.27-4.93h-4.74v-14.54H13.83v17.45h-3.58Z"/>
            <path class="cls-3" d="m10.41,39.07c6.59,3.51,13.98,4.01,20.6,1.99,3.31-1.01,6.43-2.66,9.16-4.87h-4.55v-14.29H13.83v17.18h-3.43Z"/>
            <path class="cls-3" d="m10.55,38.8c6.51,3.47,13.81,3.97,20.36,1.97,3.27-1,6.36-2.63,9.05-4.82h-4.35v-14.05H13.83v16.9h-3.28Z"/>
            <path class="cls-3" d="m10.7,38.52c6.43,3.43,13.65,3.92,20.12,1.94,3.23-.99,6.28-2.59,8.95-4.76h-4.15v-13.8H13.83v16.62h-3.13Z"/>
            <path class="cls-3" d="m10.85,38.24c6.36,3.39,13.49,3.87,19.88,1.92,3.2-.98,6.21-2.56,8.84-4.7h-3.95v-13.56H13.83v16.34h-2.98Z"/>
            <path class="cls-3" d="m11,37.96c6.28,3.35,13.33,3.83,19.64,1.9,3.16-.97,6.13-2.53,8.73-4.65h-3.75v-13.32H13.83v16.06h-2.83Z"/>
            <path class="cls-3" d="m11.15,37.68c6.2,3.31,13.16,3.78,19.4,1.87,3.12-.95,6.06-2.5,8.63-4.59h-3.56v-13.07H13.83v15.79h-2.69Z"/>
            <path class="cls-3" d="m11.29,37.41c6.13,3.27,13,3.73,19.16,1.85,3.08-.94,5.98-2.47,8.52-4.53h-3.36v-12.83H13.83v15.51h-2.54Z"/>
            <path class="cls-3" d="m11.44,37.13c6.05,3.22,12.84,3.69,18.92,1.83,3.04-.93,5.91-2.44,8.42-4.48h-3.16v-12.58H13.83v15.23h-2.39Z"/>
            <path class="cls-3" d="m11.59,36.85c5.97,3.18,12.68,3.64,18.68,1.8,3-.92,5.83-2.41,8.31-4.42h-2.96v-12.34H13.83v14.95h-2.24Z"/>
            <path class="cls-3" d="m11.74,36.57c5.9,3.14,12.51,3.59,18.44,1.78,2.96-.91,5.76-2.38,8.2-4.36h-2.76v-12.09H13.83v14.68h-2.09Z"/>
            <path class="cls-3" d="m11.89,36.3c5.82,3.1,12.35,3.55,18.2,1.76,2.93-.89,5.68-2.35,8.1-4.31h-2.57v-11.85H13.83v14.4h-1.95Z"/>
            <path class="cls-3" d="m12.04,36.02c5.74,3.06,12.19,3.5,17.96,1.73,2.89-.88,5.61-2.32,7.99-4.25h-2.37v-11.61H13.83v14.12h-1.8Z"/>
            <path class="cls-3" d="m12.18,35.74c5.67,3.02,12.03,3.45,17.72,1.71,2.85-.87,5.53-2.29,7.88-4.19h-2.17v-11.36H13.83v13.84h-1.65Z"/>
            <path class="cls-3" d="m12.33,35.46c5.59,2.98,11.86,3.41,17.49,1.69,2.81-.86,5.46-2.25,7.78-4.14h-1.97v-11.12H13.83v13.56h-1.5Z"/>
            <path class="cls-3" d="m12.48,35.18c5.52,2.94,11.7,3.36,17.25,1.67,2.77-.85,5.38-2.22,7.67-4.08h-1.77v-10.87H13.83v13.29h-1.35Z"/>
            <path class="cls-3" d="m12.63,34.91c5.44,2.9,11.54,3.31,17.01,1.64,2.73-.84,5.31-2.19,7.56-4.02h-1.58v-10.63H13.83v13.01h-1.21Z"/>
            <path class="cls-3" d="m12.78,34.63c10.72,5.71,24.06,1.64,29.78-9.11h-6.94v-3.62H13.83v12.73h-1.06Z"/>
            <path class="cls-3" d="m12.92,34.35c10.57,5.63,23.72,1.61,29.36-8.98h-6.66v-3.48H13.83v12.45h-.91Z"/>
            <path class="cls-3" d="m13.07,34.07c10.42,5.55,23.37,1.59,28.93-8.85h-6.38v-3.33H13.83v12.17h-.76Z"/>
            <path class="cls-3" d="m13.22,33.79c10.26,5.47,23.03,1.57,28.51-8.72h-6.11v-3.18H13.83v11.9h-.61Z"/>
            <path class="cls-3" d="m13.37,33.52c10.11,5.39,22.68,1.54,28.08-8.59h-5.83v-3.03H13.83v11.62h-.47Z"/>
            <path class="cls-3" d="m13.52,33.24c9.96,5.31,22.34,1.52,27.66-8.46h-5.55v-2.88H13.83v11.34h-.32Z"/>
            <path class="cls-3" d="m13.66,32.96c9.8,5.23,22,1.5,27.23-8.33h-5.28v-2.74H13.83v11.06h-.17Z"/>
            <path class="cls-3" d="m13.81,32.68c9.65,5.14,21.65,1.47,26.81-8.2h-5v-2.59H13.83v10.78h-.02Z"/>
            <path class="cls-3" d="m13.96,32.4c9.5,5.06,21.31,1.45,26.38-8.07h-4.72v-2.44H13.83v5.59h-5.85c1.59,1.97,3.6,3.66,5.97,4.92Z"/>
            <path class="cls-3" d="m14.11,32.13c9.35,4.98,20.97,1.43,25.96-7.94h-4.44v-2.29H13.83v5.39h-5.6c1.57,1.94,3.54,3.6,5.88,4.84Z"/>
            <path class="cls-3" d="m14.26,31.85c9.19,4.9,20.62,1.4,25.53-7.81h-4.17v-2.15H13.83v5.19h-5.36c1.54,1.9,3.48,3.54,5.78,4.76Z"/>
            <path class="cls-3" d="m14.4,31.57c9.04,4.82,20.28,1.38,25.1-7.67h-3.89v-2H13.83v4.99h-5.11c1.52,1.87,3.42,3.48,5.68,4.68Z"/>
            <path class="cls-3" d="m14.55,31.29c8.89,4.74,19.93,1.36,24.68-7.54h-3.61v-1.85H13.83v4.79h-4.87c1.49,1.84,3.37,3.42,5.59,4.6Z"/>
            <path class="cls-3" d="m14.7,31.01c8.73,4.65,19.59,1.33,24.25-7.41h-3.33v-1.7H13.83v4.59h-4.62c1.46,1.81,3.31,3.36,5.49,4.52Z"/>
            <path class="cls-3" d="m14.85,30.74c8.58,4.57,19.25,1.31,23.83-7.28h-3.06v-1.55H13.83v4.39h-4.38c1.44,1.78,3.25,3.3,5.39,4.45Z"/>
            <path class="cls-3" d="m15,30.46c8.43,4.49,18.9,1.29,23.4-7.15h-2.78v-1.41H13.83v4.2h-4.13c1.41,1.75,3.19,3.24,5.3,4.37Z"/>
            <path class="cls-3" d="m15.15,30.18c8.27,4.41,18.56,1.26,22.98-7.02h-2.5v-1.26H13.83l-6.94-1.76c1.26,4.16,4.11,7.84,8.25,10.04Z"/>
            <path class="cls-3" d="m15.29,29.9c8.12,4.33,18.22,1.24,22.55-6.89h-2.22v-1.11H13.83l-6.64-1.85c1.24,4.08,4.04,7.69,8.1,9.85Z"/>
            <path class="cls-3" d="m15.44,29.63c7.97,4.25,17.87,1.22,22.13-6.76h-1.95v-.96H13.83l-6.34-1.94c1.22,4.01,3.96,7.55,7.94,9.67Z"/>
            <path class="cls-3" d="m15.59,29.35c7.81,4.16,17.53,1.19,21.7-6.63h-1.67v-.82H13.83l-6.03-2.03c1.19,3.93,3.88,7.4,7.79,9.48Z"/>
            <path class="cls-3" d="m15.74,29.07c7.66,4.08,17.18,1.17,21.27-6.5h-1.39v-.67H13.83l-5.73-2.12c1.17,3.85,3.81,7.26,7.64,9.3Z"/>
            <path class="cls-3" d="m15.89,28.79c7.51,4,16.84,1.15,20.85-6.37h-1.11v-.52H13.83l-5.43-2.22c1.15,3.78,3.73,7.11,7.49,9.11Z"/>
            <path class="cls-3" d="m16.03,28.51c7.35,3.92,16.5,1.12,20.42-6.24h-.84v-.37H13.83l-5.13-2.31c1.12,3.7,3.66,6.97,7.33,8.92Z"/>
            <path class="cls-3" d="m16.18,28.24c7.2,3.84,16.15,1.1,20-6.11h-.56v-.22H13.83l-4.83-2.4c1.1,3.62,3.58,6.82,7.18,8.74Z"/>
            <path class="cls-3" d="m16.33,27.96c7.05,3.76,15.81,1.08,19.57-5.98h-.28v-.08H13.83l-4.53-2.49c1.08,3.54,3.5,6.67,7.03,8.55Z"/>
            <path class="cls-3" d="m16.48,27.68c6.89,3.67,15.47,1.05,19.15-5.85v.07H13.83l-4.23-2.58c1.05,3.47,3.43,6.53,6.87,8.37Z"/>
            <path class="cls-3" d="m16.63,27.4c6.74,3.59,15.12,1.03,18.72-5.72v.22H13.83l-3.93-2.68c1.03,3.39,3.35,6.38,6.72,8.18Z"/>
            <path class="cls-3" d="m16.77,27.12c6.59,3.51,14.78,1.01,18.3-5.59v.37H13.83l-3.63-2.77c1.01,3.31,3.28,6.24,6.57,7.99Z"/>
            <path class="cls-3" d="m16.92,26.85c6.43,3.43,14.44.98,17.87-5.46v.52H13.83l-3.33-2.86c.98,3.24,3.2,6.09,6.42,7.81Z"/>
            <path class="cls-3" d="m17.07,26.57c6.28,3.35,14.09.96,17.45-5.33v.66H13.83l-3.03-2.95c.96,3.16,3.12,5.95,6.26,7.62Z"/>
            <path class="cls-3" d="m17.22,26.29c6.13,3.27,13.75.94,17.02-5.2v.81H13.83l-2.72-3.04c.94,3.08,3.05,5.8,6.11,7.44Z"/>
            <path class="cls-3" d="m17.37,26.01c5.97,3.18,13.4.91,16.59-5.07v.96H13.83l-2.42-3.14c.91,3,2.97,5.66,5.96,7.25Z"/>
            <path class="cls-3" d="m17.52,25.73c5.82,3.1,13.06.89,16.17-4.94v1.11H13.83l-2.12-3.23c.89,2.93,2.89,5.51,5.81,7.07Z"/>
            <path class="cls-3" d="m17.66,25.46c5.67,3.02,12.72.87,15.74-4.81v1.25H13.83l-1.82-3.32c.87,2.85,2.82,5.37,5.65,6.88Z"/>
            <path class="cls-3" d="m17.81,25.18c5.52,2.94,12.37.84,15.32-4.68v1.4H13.83l-1.52-3.41c.84,2.77,2.74,5.22,5.5,6.69Z"/>
            <path class="cls-3" d="m17.96,24.9c5.36,2.86,12.03.82,14.89-4.55v1.55H13.83l-1.22-3.5c.82,2.7,2.67,5.08,5.35,6.51Z"/>
            <path class="cls-3" d="m18.11,24.62c5.21,2.78,11.69.8,14.47-4.42v1.7H13.83l-.92-3.6c.8,2.62,2.59,4.93,5.19,6.32Z"/>
            <path class="cls-3" d="m18.26,24.34c5.06,2.69,11.34.77,14.04-4.29v1.85H13.83l-.62-3.69c.77,2.54,2.51,4.79,5.04,6.14Z"/>
            <path class="cls-3" d="m18.4,24.07c4.9,2.61,11,.75,13.62-4.16v1.99H13.83l-.32-3.78c.75,2.47,2.44,4.64,4.89,5.95Z"/>
            <path class="cls-3" d="m18.55,23.79c4.75,2.53,10.65.73,13.19-4.03v2.14H13.83l-.02-3.87c.73,2.39,2.36,4.5,4.74,5.76Z"/>
            <path class="cls-3" d="m18.7,23.51c4.6,2.45,10.31.7,12.76-3.9v2.29H14.12v-3.96c.7,2.31,2.28,4.35,4.58,5.58Z"/>
            <path class="cls-3" d="m18.85,23.23c4.44,2.37,9.97.68,12.34-3.77v2.44H14.42v-4.06c.68,2.23,2.21,4.21,4.43,5.39Z"/>
            <path class="cls-3" d="m19,22.96c4.29,2.29,9.62.66,11.91-3.64v2.58H14.72v-4.15c.66,2.16,2.13,4.06,4.28,5.21Z"/>
            <path class="cls-3" d="m19.14,22.68c4.14,2.2,9.28.63,11.49-3.51v2.73h-15.61v-4.24c.63,2.08,2.06,3.92,4.12,5.02Z"/>
            <path class="cls-3" d="m19.29,22.4c3.98,2.12,8.94.61,11.06-3.38v2.88h-15.03v-4.33c.61,2,1.98,3.77,3.97,4.83Z"/>
            <path class="cls-3" d="m19.44,22.12c3.83,2.04,8.59.59,10.64-3.25v3.03h-14.46v-4.42c.58,1.93,1.9,3.63,3.82,4.65Z"/>
            <path class="cls-3" d="m19.59,21.84c3.68,1.96,8.25.56,10.21-3.12v3.18h-10.21v-.05Z"/>
            <path class="cls-3" d="m19.74,21.57c3.52,1.88,7.91.54,9.79-2.99v3.32h-9.79v-.33Z"/>
            <path class="cls-3" d="m19.88,21.29c3.37,1.8,7.56.51,9.36-2.86v3.47h-9.36v-.61Z"/>
            <path class="cls-3" d="m20.03,21.01c3.22,1.71,7.22.49,8.94-2.73v3.62h-8.94v-.89Z"/>
            <path class="cls-3" d="m20.18,20.73c3.06,1.63,6.87.47,8.51-2.6v3.77h-8.51v-1.17Z"/>
            <path class="cls-3" d="m20.33,20.45c2.91,1.55,6.53.44,8.08-2.47v3.92h-8.08v-1.44Z"/>
          </g>
        </g>
        <g>
          <path class="cls-4" d="m22.14,39.26c-1.58.45-3.2.63-4.82.63-.99,0-2.03-.09-2.97-.23l-2.75,3.61c1.85.5,3.79.72,5.72.72s4.01-.27,5.9-.81c1.08-.32,1.71-1.44,1.44-2.52-.27-.9-1.08-1.49-1.98-1.49-.18.05-.36.05-.54.09Z"/>
          <g class="cls-1">
            <rect class="cls-3" x="11.59" y="39.17" width="13.34" height="4.82"/>
            <path class="cls-3" d="m7.85,43.41c7.68,4.04,16.28,4.55,23.99,2.12l-5.91-.54v-6.82h-15.34v5.24h-2.74Z"/>
            <path class="cls-3" d="m8,43.14c7.6,4,16.12,4.51,23.75,2.1l-5.82-.24v-6.82h-15.34v4.97h-2.59Z"/>
            <path class="cls-3" d="m8.14,42.86c7.53,3.96,15.96,4.46,23.51,2.07h-5.73v-6.76h-15.34v4.69h-2.44Z"/>
            <path class="cls-3" d="m8.29,42.58c7.45,3.92,15.8,4.42,23.28,2.05h-5.64v-6.46h-15.34v4.41h-2.3Z"/>
            <path class="cls-3" d="m8.44,42.3c7.38,3.88,15.64,4.37,23.04,2.03h-5.55v-6.17h-15.34v4.13h-2.15Z"/>
            <path class="cls-3" d="m8.58,42.02c7.3,3.84,15.48,4.33,22.8,2.01h-5.46v-5.87h-15.34v3.85h-2Z"/>
            <path class="cls-3" d="m8.73,41.75c7.22,3.8,15.32,4.28,22.56,1.99h-5.36v-5.57h-15.34v3.58h-1.86Z"/>
            <path class="cls-3" d="m8.88,41.47c7.15,3.76,15.16,4.24,22.33,1.97h-5.27v-5.27h-15.34v3.3h-1.71Z"/>
            <path class="cls-3" d="m9.02,41.19c7.07,3.72,14.99,4.19,22.09,1.95h-5.18v-4.97h-15.34v3.02h-1.57Z"/>
            <path class="cls-3" d="m9.17,40.91c7,3.68,14.83,4.15,21.85,1.93h-5.09v-4.67h-15.34v2.74h-1.42Z"/>
            <path class="cls-3" d="m9.31,40.63c6.92,3.64,14.67,4.1,21.61,1.91h-5v-4.37h-15.34v2.46h-1.27Z"/>
            <path class="cls-3" d="m9.46,40.36c6.84,3.6,14.51,4.06,21.38,1.89h-4.91v-4.07h-15.34v2.19h-1.13Z"/>
            <path class="cls-3" d="m9.61,40.08c6.77,3.56,14.35,4.01,21.14,1.87h-4.82v-3.77h-15.34v1.91h-.98Z"/>
            <path class="cls-3" d="m9.75,39.8c6.69,3.52,14.19,3.97,20.9,1.84h-4.73v-3.47h-15.34v1.63h-.83Z"/>
            <path class="cls-3" d="m9.9,39.52c6.61,3.48,14.03,3.92,20.66,1.82h-4.63v-3.18h-15.34v1.35h-.69Z"/>
            <path class="cls-3" d="m10.05,39.24c6.54,3.44,13.87,3.88,20.43,1.8h-4.54v-2.88h-15.34v1.07h-.54Z"/>
            <path class="cls-3" d="m10.19,38.97c6.46,3.4,13.71,3.83,20.19,1.78h-4.45v-2.58h-15.34v.8h-.4Z"/>
            <path class="cls-3" d="m10.34,38.69c6.39,3.36,13.54,3.79,19.95,1.76h-4.36v-2.28h-15.34v.52h-.25Z"/>
            <path class="cls-3" d="m10.48,38.41c6.31,3.32,13.38,3.74,19.71,1.74h-4.27v-1.98h-15.34v.24h-.1Z"/>
            <path class="cls-3" d="m10.63,38.13c6.23,3.28,13.22,3.7,19.48,1.72h-4.18v-1.68h-15.3v-.04Z"/>
            <path class="cls-3" d="m10.78,37.85c6.16,3.24,13.06,3.65,19.24,1.7h-4.09v-1.38h-15.15v-.32Z"/>
            <path class="cls-3" d="m10.92,37.58c6.08,3.2,12.9,3.61,19,1.68h-3.99v-1.08h-15.01v-.59Z"/>
            <path class="cls-3" d="m11.07,37.3c6.01,3.16,12.74,3.56,18.76,1.66h-3.9v-.78h-14.86v-.87Z"/>
            <path class="cls-3" d="m11.22,37.02c5.93,3.12,12.58,3.52,18.53,1.63h-3.81v-.48h-14.71v-1.15Z"/>
            <path class="cls-3" d="m11.36,36.74c5.85,3.08,12.42,3.47,18.29,1.61h-3.72v-.19h-14.57v-1.43Z"/>
            <path class="cls-3" d="m11.51,36.46c5.78,3.04,12.25,3.43,18.05,1.59l-3.63.11h-14.42v-1.71Z"/>
            <path class="cls-3" d="m11.65,36.19c5.7,3,12.09,3.38,17.81,1.57l-3.54.41h-14.28v-1.98Z"/>
            <path class="cls-3" d="m11.8,35.91c5.63,2.96,11.93,3.33,17.58,1.55l-3.45.71h-14.13v-2.26Z"/>
            <path class="cls-3" d="m11.95,35.63c5.55,2.92,11.77,3.29,17.34,1.53l-3.36,1.01h-13.98v-2.54Z"/>
            <path class="cls-3" d="m12.09,35.35c5.47,2.88,11.61,3.24,17.1,1.51l-3.26,1.31h-13.84v-2.82Z"/>
            <path class="cls-3" d="m12.24,35.07c5.4,2.84,11.45,3.2,16.86,1.49l-3.17,1.61h-13.69v-3.1Z"/>
          </g>
        </g>
      </g>
    </g>
  </g>
</svg>