<?xml version="1.0" encoding="utf-8"?>
<!-- Generator: Adobe Illustrator 20.1.0, SVG Export Plug-In . SVG Version: 6.00 Build 0)  -->
<svg version="1.1" id="Layer_1" xmlns="http://www.w3.org/2000/svg" xmlns:xlink="http://www.w3.org/1999/xlink" x="0px" y="0px"
	 width="583px" height="397.1px" viewBox="0 0 583 397.1" enable-background="new 0 0 583 397.1" xml:space="preserve">
<g>
	<g>
		<g>
			<g>
				<rect x="408.1" y="58.3" fill="#154A9F" width="58.3" height="58.3"/>
				<rect x="466.4" y="0" fill="#154A9F" width="58.3" height="58.3"/>
				<rect x="524.7" y="58.3" fill="#154A9F" width="58.3" height="58.3"/>
				<polygon fill="#2B66B1" points="408.1,116.6 408.1,174.9 466.4,174.9 466.4,116.6 408.1,116.6 408.1,58.3 349.8,58.3 
					349.8,116.6 				"/>
				<path fill="#3575BB" d="M349.8,174.9h58.3v-58.3h-58.3V58.3h-0.4c-32,0.2-57.9,26.2-57.9,58.3v0h58.3V174.9z"/>
				<rect x="466.4" y="116.6" fill="#154A9F" width="58.3" height="58.3"/>
				<rect x="524.7" y="116.6" fill="#2B66B1" width="58.3" height="58.3"/>
				<rect x="349.8" y="174.9" fill="#488FCC" width="58.3" height="58.3"/>
				<rect x="408.1" y="174.9" fill="#3575BB" width="58.3" height="58.3"/>
				<rect x="466.4" y="174.9" fill="#2B66B1" width="58.3" height="58.3"/>
				<rect x="291.5" y="116.6" fill="#488FCC" width="58.3" height="58.3"/>
				<rect x="291.5" y="174.9" fill="#71B3E2" width="58.3" height="58.3"/>
				<rect x="291.5" y="233.2" fill="#95C8EC" width="58.3" height="58.3"/>
				<rect x="349.8" y="233.2" fill="#71B3E2" width="58.3" height="58.3"/>
				<rect x="408.1" y="233.2" fill="#488FCC" width="58.3" height="58.3"/>
				<rect x="524.7" y="233.2" fill="#2B66B1" width="58.3" height="58.3"/>
				<rect x="349.8" y="291.5" fill="#95C8EC" width="58.3" height="58.3"/>
				<rect x="408.1" y="291.5" fill="#71B3E2" width="58.3" height="58.3"/>
				<rect x="466.4" y="291.5" fill="#488FCC" width="58.3" height="58.3"/>
				<path fill="#BEDDF4" d="M291.5,397.1c0.4,0,0.7,0,1.1-0.1c2.1-11,7.3-20.9,14.7-28.7c10.6-11.3,25.5-18.3,42.2-18.4h0.4v-58.3
					h-58.3V397.1z"/>
			</g>
		</g>
	</g>
	<path fill="#154A9F" d="M291.5,116.6v280.5c0,0,0,0,0,0c-0.3,0-0.7,0-1-0.1c-2.1-11-7.4-21-14.8-28.8c-10.6-11.2-25.5-18.2-42-18.3
		c-0.1,0-0.2,0-0.3,0H58.3c-24.1,0-44.9-14.7-53.7-35.6c-3-7-4.6-14.6-4.6-22.7V58.3h233.6c3.3,0,6.6,0.3,9.7,0.9
		C270.7,64,291.5,87.9,291.5,116.6z"/>
	<path fill="#FFFFFF" d="M82,253.7h4.3v24.6h-3.5v-16.4l0.1-2.7l-0.1,0l-1.1,2.4l-8.1,16.7h-2.7l-8.1-16.6l-1.1-2.4l-0.1,0l0,2.7
		v16.3h-3.4v-24.6h4.3l8.5,17.6l1.1,2.4h0.1l1.1-2.4L82,253.7z M116.5,266.1c0,8.3-3.4,12.7-12.1,12.7c-8.1,0-12-3.6-12.1-12.5
		c0-0.6,0-1.3,0.1-1.9h20c-0.4-5.7-2.9-8-9.2-8c-3.4,0-6.5,0.6-8.5,1.4l-0.5-3.1c2.3-0.9,5.6-1.6,9.5-1.6
		C112.2,253.2,116.5,257.3,116.5,266.1z M112.5,267.4H96.4v0.1c0,5.6,2.2,8,8,8C110.2,275.5,112.2,273,112.5,267.4z M136.1,267.5
		l7.6,10.8h-4.6l-6.4-10.1h-6.2v10.1h-3.8v-24.6h10.2c6.1,0,9,2.5,9,7.2C141.8,264.5,139.8,267,136.1,267.5z M137.8,261
		c0-2.9-1.5-4.2-5.1-4.2h-6.3v8.6h6.1C136.2,265.4,137.8,264.1,137.8,261z M170.2,253.7h-4.6l-8.9,10.3h-4.6v-10.3h-3.8v24.6h3.8
		v-11.2h4.6l9.3,11.2h4.9l-10.8-13L170.2,253.7z M197.2,266.1c0,8.3-3.4,12.7-12.1,12.7c-8.1,0-12-3.6-12.1-12.5
		c0-0.6,0-1.3,0.1-1.9h20c-0.4-5.7-2.9-8-9.2-8c-3.4,0-6.5,0.6-8.5,1.4l-0.5-3.1c2.3-0.9,5.6-1.6,9.5-1.6
		C192.9,253.2,197.2,257.3,197.2,266.1z M193.1,267.4h-16.1v0.1c0,5.6,2.2,8,8,8C190.8,275.5,192.9,273,193.1,267.4z M206.1,274.8
		l1.7-1.9l13.3-16.4v-2.8h-19.5l-0.1,3.4h14.6l0,0.1l-1.7,2L201,275.9v2.4h20l0.1-3.4L206.1,274.8L206.1,274.8z M227.4,278.3h3.9
		v-24.6h-3.9V278.3z M231.3,245.9h-3.9v3.9h3.9V245.9z M68.6,161.2H58.3v-24.6h10.2c8.7,0,12.4,4,12.4,12.3
		C80.9,157.4,76.7,161.2,68.6,161.2z M68.4,157.7c5.8,0,8.4-2.1,8.4-9c0-6.5-2.4-8.8-8.4-8.8h-6.3v17.8H68.4z M86.1,148.8
		c0-8.5,3.4-12.7,12.1-12.7c8.7,0,12.1,4.2,12.1,12.7c0,8.6-3.3,12.8-12.1,12.8C89.5,161.6,86.1,157.4,86.1,148.8z M90.1,148.8
		c0,7,2.2,9.4,8.1,9.4c5.8,0,8.1-2.4,8.1-9.4c0-7-2.2-9.4-8.1-9.4C92.4,139.5,90.1,141.8,90.1,148.8z M127.4,161.2l10.6-24.6h-4
		l-7.6,18.7l-0.9,2.5h-0.1l-1-2.5l-7.5-18.7h-4.2l10.6,24.6H127.4z M160.2,157.7h-13.8v-21.2h-3.8v24.6h17.5L160.2,157.7z
		 M163,149.2c0-0.6,0-1.3,0.1-1.9h20c-0.4-5.7-2.9-8-9.2-8c-3.4,0-6.5,0.6-8.5,1.4l-0.5-3.1c2.3-0.9,5.6-1.6,9.5-1.6
		c8.4,0,12.7,4,12.7,12.8c0,8.3-3.4,12.7-12.1,12.7C167,161.6,163.1,158,163,149.2z M167.1,150.3c0,5.6,2.2,8,8,8
		c5.8,0,7.8-2.5,8.1-8.1L167.1,150.3L167.1,150.3z M198.2,161.2h3.8V140h8.7l-0.1-3.4h-21.1l-0.1,3.4h8.7V161.2z M103.5,129.9h-3.3
		v3.3h3.3V129.9z M96.2,129.9h-3.3v3.3h3.3V129.9z M69.9,195.6v24.6h3.4V204l0-2.7l0.1,0l1.1,2.4l8.1,16.6h2.7l8.1-16.7l1.1-2.4
		l0.1,0l-0.1,2.7v16.4h3.5v-24.6h-4.3l-8.6,17.6l-1.1,2.4h-0.1l-1.1-2.4l-8.5-17.6H69.9z M114.9,220.3v-21.2h8.7l-0.1-3.4h-21.1
		l-0.1,3.4h8.7v21.2H114.9z M149.2,220.3h-4.3l-2.4-5.8h-13.2l-2.4,5.8h-4.1l11-24.6h4.4L149.2,220.3z M141.3,211.3l-4.3-10.6
		l-0.9-2.5H136l-1,2.5l-4.4,10.6H141.3z M175.4,220.3v-24.6h-3.8v10.2h-14.1v-10.2h-3.8v24.6h3.8v-11h14.1v11H175.4z M201.9,220.3
		l-2.4-5.8h-13.2l-2.4,5.8h-4.1l11-24.6h4.4l11,24.6H201.9z M198.3,211.3l-4.3-10.6l-0.9-2.5h-0.1l-1,2.5l-4.4,10.6H198.3z
		 M229.1,195.6v15.9l0.1,2.6l-0.1,0l-1.7-2.1L214,195.6h-3.4v24.6h3.5v-16.4l0-2.7l0.1,0l1.6,2.1l14.2,17h2.6v-24.6H229.1z
		 M58.3,220.3h3.9v-24.6h-3.9V220.3z M62.2,187.9h-3.9v3.9h3.9V187.9z"/>
</g>
</svg>
