<svg id="Layer_1" data-name="Layer 1" xmlns="http://www.w3.org/2000/svg" xmlns:xlink="http://www.w3.org/1999/xlink" viewBox="-70 0 400 330">
  <defs>
    <style>
      .cls-1{fill:#16224f;}
      .cls-2{fill:url(#linear-gradient);}
      .cls-3{fill:url(#linear-gradient-2);}
      .cls-4{fill:url(#linear-gradient-3);}
    </style>
    <linearGradient id="linear-gradient" x1="388.64" y1="331.77" x2="-55.52" y2="139.23" gradientUnits="userSpaceOnUse">
      <stop offset="0" stop-color="#8e54e9"/>
      <stop offset="0.04" stop-color="#4776e6"/>
      <stop offset="1" stop-color="#8e54e9"/>
    </linearGradient>
    <linearGradient id="linear-gradient-2" x1="432.72" y1="230.07" x2="-11.43" y2="37.53" xlink:href="#linear-gradient"/>
    <linearGradient id="linear-gradient-3" x1="439.07" y1="215.43" x2="-5.08" y2="22.89" xlink:href="#linear-gradient"/>
  </defs>
  <path class="cls-2" d="M178.87,208l-6.9-.08A127.67,127.67,0,0,1,157.4,207a76.54,76.54,0,0,1-22.69-6.06c-6.18-2.87-10.77-6.58-13.42-11-2.77-4.56-3.27-9.69-3.68-26.21-.16-6.55-.31-13.14-.4-19.77l-.26-.2-22.36-17L78.24,114.32V124.5q0,11,.22,21.87c.09,6.15.21,12.25.38,18.34.42,16.66.77,30,8.13,43.31h0c.37.67.75,1.34,1.16,2,9.27,15.35,25.31,26.22,46.57,32h0a121.39,121.39,0,0,0,13.8,2.9c1.28.21,2.58.38,3.89.56v41.64a134.06,134.06,0,0,1-17.69-2,124.16,124.16,0,0,1-17.7-4.55,112.39,112.39,0,0,1-38.78-22.24c-1.59-1.39-3.18-2.87-4.74-4.41C39.58,220.53,38.39,178.2,38.81,166l0-41.52V114.3h0V83.84L0,54.11v66.57h0V165c-.54,16.66,1.37,72.39,46.22,116.54a149,149,0,0,0,32,24,160.9,160.9,0,0,0,56.48,18.68,174,174,0,0,0,23.68,1.65h32.79V208.11l-8.74-.09Z"/>
  <path class="cls-3" d="M325.82,176.85V0L287,29.7l-96,73.45.11,46.92L287,76.78v67h0l0,34.07c0,.34,0,.74,0,1.14v4.47a125.53,125.53,0,0,1-6.85,37.94,115.44,115.44,0,0,1-15.35,29.76,113.82,113.82,0,0,1-12.51,14.58c-1.56,1.55-3.15,3-4.74,4.42a111.66,111.66,0,0,1-17.73,12.74v42.95a152.19,152.19,0,0,0,17.73-8.45,151.3,151.3,0,0,0,49-44s.07-.07.12-.1a156.1,156.1,0,0,0,23.87-51.88,163.86,163.86,0,0,0,3.53-17.69c.12-.78.22-1.54.33-2.29s.19-1.5.28-2.24c.42-3.67.7-7.05.86-10.1C325.93,184,325.92,179.8,325.82,176.85Z"/>

  <polygon class="cls-4" points="78.25 16.81 78.25 63.89 95.1 76.78 190.95 150.07 191.05 103.15 95.1 29.7 78.25 16.81"/>
</svg>